<!DOCTYPE svg PUBLIC "-//W3C//DTD SVG 1.1//EN" "http://www.w3.org/Graphics/SVG/1.1/DTD/svg11.dtd">
<!-- Uploaded to: SVG Repo, www.svgrepo.com, Transformed by: SVG Repo Mixer Tools -->
<svg fill="#ffffff" width="800px" height="800px" viewBox="0 0 32 32" version="1.1" xmlns="http://www.w3.org/2000/svg" stroke="#ffffff">
<g id="SVGRepo_bgCarrier" stroke-width="0"/>
<g id="SVGRepo_tracerCarrier" stroke-linecap="round" stroke-linejoin="round"/>
<g id="SVGRepo_iconCarrier"> <title>arrow-right-arrow-left</title> <path d="M2 10.75h26.188l-3.72 3.72c-0.134 0.136-0.218 0.322-0.218 0.528 0 0.415 0.336 0.751 0.751 0.751 0.207 0 0.394-0.083 0.529-0.219l5-5c0.025-0.026 0.017-0.064 0.038-0.093 0.040-0.052 0.098-0.088 0.124-0.151 0.013-0.050 0.020-0.108 0.020-0.167 0-0.011-0-0.021-0.001-0.032l0 0.002c0.009-0.041 0.014-0.087 0.014-0.135 0-0.004-0-0.008-0-0.011v0.001c-0.006-0.184-0.079-0.35-0.196-0.475l0 0-5-5c-0.136-0.135-0.323-0.218-0.529-0.218-0.415 0-0.751 0.336-0.751 0.751 0 0.206 0.083 0.393 0.218 0.528l3.721 3.72h-26.189c-0.414 0-0.75 0.336-0.75 0.75s0.336 0.75 0.75 0.75v0zM30 21.25h-26.189l3.719-3.72c0.131-0.135 0.212-0.32 0.212-0.523 0-0.414-0.336-0.75-0.75-0.75-0.203 0-0.388 0.081-0.523 0.213l-5 4.999c-0.025 0.025-0.017 0.064-0.038 0.092-0.041 0.052-0.099 0.089-0.125 0.152-0.013 0.050-0.020 0.108-0.020 0.167 0 0.010 0 0.021 0.001 0.031l-0-0.001c-0.009 0.041-0.014 0.088-0.014 0.136 0 0.004 0 0.008 0 0.012v-0.001c0.006 0.184 0.080 0.351 0.197 0.475l-0-0 5 5c0.136 0.134 0.322 0.218 0.528 0.218 0.415 0 0.751-0.336 0.751-0.751 0-0.207-0.083-0.394-0.218-0.529l-3.72-3.719h26.189c0.414 0 0.75-0.336 0.75-0.75s-0.336-0.75-0.75-0.75v0z"/> </g>
</svg>